<svg xmlns="http://www.w3.org/2000/svg" viewBox="0 0 52 32"><defs><style>.cls-1{fill:#222;fill-rule:evenodd}</style></defs><title>logo</title><g id="Слой_2" data-name="Слой 2"><path class="cls-1" d="M51.5 28.81L35.17.07a.17.17 0 0 0-.27 0c-.15.15-15 26.4-15 26.4l-3.56-6.13v-.16a9.54 9.54 0 0 0 6.38-9.12c0-7.14-6.95-9.2-8.47-9.2H0l2.4 4.46h10.87s5.53-.43 5.53 4.86-4.22 5.38-5 5.38H9.36l8.16 14.1a2.65 2.65 0 0 0 2 1.35 2.43 2.43 0 0 0 2.21-1.39C22.21 29.86 35 7.71 35 7.71l9.87 17-10.06-6 3.75 6.69L49 31.52s1.65.69 2.63-.28-.13-2.43-.13-2.43zM.15 11.53v17.84s0 1.75 2.13 1.75a1.84 1.84 0 0 0 2.09-1.83V18.94z" id="Слой_1-2" data-name="Слой 1"/></g></svg>